Normalized EMG Linear Envelopes
nRows=27
nColumns=17

endheader
time	        VM	        VL	        RF	       GRA	        TA	   ADDLONG	   SEMIMEM	      BFLH	        GM	        GL	       TFL	   GLUTMAX	   GLUTMED	      PIRI	    OBTINT	        QF	
1.3	  0.422800	  0.434648	  0.075209	  0.187612	  0.069973	  0.127673	  0.195762	  0.141510	  0.156563	  0.130520	  0.210299	  0.154839	  0.077310	  0.539593	  2.257880	  0.242770	
1.3005	  0.422573	  0.436879	  0.076375	  0.187205	  0.070266	  0.128262	  0.192101	  0.139741	  0.155906	  0.130870	  0.213373	  0.154005	  0.076883	  0.534768	  2.274708	  0.241188	
1.301	  0.422302	  0.439042	  0.077553	  0.186851	  0.070564	  0.128869	  0.188474	  0.138003	  0.155277	  0.131229	  0.216446	  0.153145	  0.076470	  0.529942	  2.291471	  0.239606	
1.3015	  0.421984	  0.441135	  0.078744	  0.186551	  0.070865	  0.129497	  0.184881	  0.136296	  0.154675	  0.131595	  0.219518	  0.152262	  0.076069	  0.525117	  2.308173	  0.238023	
1.302	  0.421621	  0.443155	  0.079946	  0.186306	  0.071170	  0.130144	  0.181324	  0.134621	  0.154102	  0.131969	  0.222587	  0.151354	  0.075682	  0.520293	  2.324813	  0.236440	
1.3025	  0.421212	  0.445102	  0.081161	  0.186117	  0.071478	  0.130812	  0.177803	  0.132976	  0.153555	  0.132352	  0.225652	  0.150423	  0.075309	  0.515472	  2.341395	  0.234858	
1.303	  0.420756	  0.446972	  0.082387	  0.185984	  0.071789	  0.131500	  0.174320	  0.131361	  0.153037	  0.132745	  0.228713	  0.149469	  0.074949	  0.510655	  2.357921	  0.233277	
1.3035	  0.420253	  0.448764	  0.083626	  0.185909	  0.072103	  0.132209	  0.170875	  0.129776	  0.152545	  0.133147	  0.231768	  0.148492	  0.074604	  0.505842	  2.374393	  0.231697	
1.304	  0.419705	  0.450476	  0.084877	  0.185892	  0.072419	  0.132939	  0.167469	  0.128219	  0.152082	  0.133560	  0.234817	  0.147493	  0.074273	  0.501035	  2.390815	  0.230117	
1.3045	  0.419109	  0.452105	  0.086140	  0.185935	  0.072736	  0.133691	  0.164104	  0.126691	  0.151645	  0.133984	  0.237857	  0.146472	  0.073956	  0.496236	  2.407188	  0.228539	
1.305	  0.418466	  0.453652	  0.087414	  0.186037	  0.073056	  0.134463	  0.160779	  0.125191	  0.151237	  0.134420	  0.240889	  0.145429	  0.073655	  0.491445	  2.423517	  0.226963	
1.3055	  0.417776	  0.455114	  0.088701	  0.186199	  0.073377	  0.135257	  0.157495	  0.123718	  0.150855	  0.134868	  0.243909	  0.144365	  0.073367	  0.486663	  2.439804	  0.225389	
1.306	  0.417038	  0.456490	  0.089999	  0.186423	  0.073698	  0.136072	  0.154254	  0.122272	  0.150502	  0.135328	  0.246918	  0.143282	  0.073095	  0.481892	  2.456052	  0.223817	
1.3065	  0.416253	  0.457779	  0.091309	  0.186708	  0.074021	  0.136909	  0.151056	  0.120852	  0.150176	  0.135802	  0.249914	  0.142178	  0.072838	  0.477134	  2.472264	  0.222248	
1.307	  0.415419	  0.458979	  0.092630	  0.187056	  0.074343	  0.137768	  0.147902	  0.119457	  0.149877	  0.136290	  0.252896	  0.141056	  0.072596	  0.472389	  2.488443	  0.220684	
1.3075	  0.414538	  0.460090	  0.093963	  0.187467	  0.074666	  0.138648	  0.144791	  0.118087	  0.149607	  0.136793	  0.255862	  0.139915	  0.072369	  0.467660	  2.504589	  0.219124	
1.308	  0.413608	  0.461109	  0.095307	  0.187941	  0.074989	  0.139549	  0.141725	  0.116742	  0.149364	  0.137311	  0.258811	  0.138756	  0.072158	  0.462947	  2.520706	  0.217569	
1.3085	  0.412629	  0.462037	  0.096661	  0.188479	  0.075312	  0.140472	  0.138705	  0.115421	  0.149148	  0.137845	  0.261741	  0.137580	  0.071962	  0.458254	  2.536793	  0.216022	
1.309	  0.411601	  0.462870	  0.098027	  0.189083	  0.075634	  0.141417	  0.135730	  0.114122	  0.148961	  0.138395	  0.264652	  0.136386	  0.071782	  0.453580	  2.552851	  0.214482	
1.3095	  0.410524	  0.463608	  0.099403	  0.189752	  0.075955	  0.142383	  0.132802	  0.112847	  0.148800	  0.138962	  0.267542	  0.135176	  0.071618	  0.448928	  2.568879	  0.212952	
1.31	  0.409398	  0.464249	  0.100788	  0.190487	  0.076276	  0.143370	  0.129920	  0.111593	  0.148668	  0.139546	  0.270409	  0.133950	  0.071469	  0.444299	  2.584876	  0.211431	
1.3105	  0.408221	  0.464791	  0.102184	  0.191289	  0.076595	  0.144378	  0.127086	  0.110362	  0.148564	  0.140148	  0.273253	  0.132709	  0.071337	  0.439695	  2.600841	  0.209921	
1.311	  0.406993	  0.465233	  0.103589	  0.192158	  0.076914	  0.145408	  0.124299	  0.109151	  0.148487	  0.140768	  0.276070	  0.131452	  0.071220	  0.435116	  2.616771	  0.208423	
1.3115	  0.405715	  0.465573	  0.105004	  0.193097	  0.077232	  0.146459	  0.121561	  0.107962	  0.148439	  0.141406	  0.278861	  0.130181	  0.071120	  0.430564	  2.632664	  0.206938	
1.312	  0.404384	  0.465809	  0.106427	  0.194104	  0.077550	  0.147530	  0.118870	  0.106792	  0.148419	  0.142064	  0.281623	  0.128896	  0.071037	  0.426041	  2.648515	  0.205466	
1.3125	  0.403002	  0.465942	  0.107859	  0.195180	  0.077866	  0.148622	  0.116229	  0.105642	  0.148427	  0.142740	  0.284356	  0.127598	  0.070970	  0.421548	  2.664322	  0.204009	
1.313	  0.401567	  0.465970	  0.109299	  0.196327	  0.078181	  0.149735	  0.113637	  0.104511	  0.148464	  0.143436	  0.287058	  0.126288	  0.070919	  0.417086	  2.680080	  0.202568	
